<svg width="16" height="16" viewBox="0 0 12 12" fill="none" xmlns="http://www.w3.org/2000/svg">
<path fill-rule="evenodd" clip-rule="evenodd" d="M1.60001 4.90001C1.60001 3.07747 3.07747 1.60001 4.90001 1.60001C6.72255 1.60001 8.20001 3.07747 8.20001 4.90001C8.20001 6.72255 6.72255 8.20001 4.90001 8.20001C3.07747 8.20001 1.60001 6.72255 1.60001 4.90001ZM4.90001 0.200013C2.30427 0.200013 0.200012 2.30427 0.200012 4.90001C0.200012 7.49575 2.30427 9.60001 4.90001 9.60001C5.87256 9.60001 6.77612 9.30462 7.52586 8.79865L10.2636 11.5364C10.6151 11.8879 11.1849 11.8879 11.5364 11.5364C11.8879 11.1849 11.8879 10.6151 11.5364 10.2636L8.79865 7.52586C9.30462 6.77612 9.60001 5.87256 9.60001 4.90001C9.60001 2.30427 7.49575 0.200013 4.90001 0.200013Z" fill="white"/>
</svg>
